<?xml version="1.0" encoding="UTF-8"?>
<svg width="2000px" height="400px" viewBox="0 0 2000 400" version="1.1" xmlns="http://www.w3.org/2000/svg" xmlns:xlink="http://www.w3.org/1999/xlink">
    <!-- Generator: Sketch 40.1 (33804) - http://www.bohemiancoding.com/sketch -->
    <title>Artboard</title>
    <desc>Created with Sketch.</desc>
    <defs></defs>
    <g id="Page-1" stroke="none" stroke-width="1" fill="none" fill-rule="evenodd">
        <g id="Artboard">
            <g id="Group" transform="translate(49.000000, 61.000000)">
                <path d="M411.768,133.064 C432.064,133.064 445.824,123.432 455.456,110.36 L443.244,103.652 C436.708,113.456 424.84,120.336 411.768,120.336 C386.656,120.336 367.564,100.9 367.564,73.724 C367.564,46.376 386.656,27.112 411.768,27.112 C424.84,27.112 436.708,34.164 443.244,43.796 L455.284,37.088 C446.168,24.188 432.064,14.384 411.768,14.384 C378.744,14.384 352.772,38.464 352.772,73.724 C352.772,108.984 378.744,133.064 411.768,133.064 L411.768,133.064 Z M510.464,133.064 C535.748,133.064 551.572,113.456 551.572,89.376 C551.572,65.296 535.748,45.86 510.464,45.86 C485.18,45.86 469.356,65.296 469.356,89.376 C469.356,113.456 485.18,133.064 510.464,133.064 L510.464,133.064 Z M510.464,121.54 C492.748,121.54 482.772,106.404 482.772,89.376 C482.772,72.52 492.748,57.384 510.464,57.384 C528.18,57.384 537.984,72.52 537.984,89.376 C537.984,106.404 528.18,121.54 510.464,121.54 L510.464,121.54 Z M573.556,131 L586.456,131 L586.456,16.276 L573.556,16.276 L573.556,131 Z M649.548,133.064 C674.832,133.064 690.656,113.456 690.656,89.376 C690.656,65.296 674.832,45.86 649.548,45.86 C624.264,45.86 608.44,65.296 608.44,89.376 C608.44,113.456 624.264,133.064 649.548,133.064 L649.548,133.064 Z M649.548,121.54 C631.832,121.54 621.856,106.404 621.856,89.376 C621.856,72.52 631.832,57.384 649.548,57.384 C667.264,57.384 677.068,72.52 677.068,89.376 C677.068,106.404 667.264,121.54 649.548,121.54 L649.548,121.54 Z M705.416,119.992 C713.844,128.936 725.368,133.064 738.956,133.064 C760.456,133.064 771.636,121.884 771.636,107.952 C771.636,89.548 754.952,85.42 740.504,82.152 C729.668,79.572 720.208,77.336 720.208,69.424 C720.208,62.028 727.26,56.352 738.612,56.352 C749.276,56.352 758.392,60.824 763.38,66.844 L769.4,57.9 C762.692,51.192 752.716,45.86 738.612,45.86 C718.832,45.86 707.652,56.868 707.652,69.768 C707.652,86.968 723.648,90.752 737.752,94.02 C748.932,96.772 759.08,99.18 759.08,108.296 C759.08,116.552 752.2,122.572 739.472,122.572 C728.12,122.572 717.628,117.068 712.124,110.704 L705.416,119.992 Z M786.396,119.992 C794.824,128.936 806.348,133.064 819.936,133.064 C841.436,133.064 852.616,121.884 852.616,107.952 C852.616,89.548 835.932,85.42 821.484,82.152 C810.648,79.572 801.188,77.336 801.188,69.424 C801.188,62.028 808.24,56.352 819.592,56.352 C830.256,56.352 839.372,60.824 844.36,66.844 L850.38,57.9 C843.672,51.192 833.696,45.86 819.592,45.86 C799.812,45.86 788.632,56.868 788.632,69.768 C788.632,86.968 804.628,90.752 818.732,94.02 C829.912,96.772 840.06,99.18 840.06,108.296 C840.06,116.552 833.18,122.572 820.452,122.572 C809.1,122.572 798.608,117.068 793.104,110.704 L786.396,119.992 Z M869.784,89.376 C869.784,115.348 887.5,133.064 912.096,133.064 C925.684,133.064 936.864,128.592 945.12,120.336 L938.928,111.908 C932.392,118.616 922.76,122.4 913.3,122.4 C895.412,122.4 884.404,109.328 883.372,93.676 L950.624,93.676 L950.624,90.408 C950.624,65.468 935.832,45.86 910.72,45.86 C886.984,45.86 869.784,65.296 869.784,89.376 L869.784,89.376 Z M910.548,56.524 C929.468,56.524 937.724,71.832 937.896,84.216 L883.372,84.216 C884.06,71.488 892.832,56.524 910.548,56.524 L910.548,56.524 Z M1028.508,131 L1041.408,131 L1041.408,47.924 L1028.508,47.924 L1028.508,108.984 C1023.692,115.692 1014.06,121.54 1003.912,121.54 C992.732,121.54 985.336,117.24 985.336,102.62 L985.336,47.924 L972.436,47.924 L972.436,106.576 C972.436,124.636 981.552,133.064 998.924,133.064 C1011.308,133.064 1022.144,126.528 1028.508,119.304 L1028.508,131 Z M1168.484,131 L1181.384,131 L1181.384,70.972 C1181.384,54.288 1173.3,45.86 1158.164,45.86 C1146.124,45.86 1134.944,53.772 1130.3,61.34 C1127.892,52.74 1120.668,45.86 1107.94,45.86 C1095.728,45.86 1084.548,54.632 1081.108,59.964 L1081.108,47.924 L1068.208,47.924 L1068.208,131 L1081.108,131 L1081.108,70.284 C1085.58,63.576 1094.524,57.384 1102.952,57.384 C1113.788,57.384 1118.26,64.092 1118.26,74.584 L1118.26,131 L1131.16,131 L1131.16,70.112 C1135.46,63.576 1144.576,57.384 1153.176,57.384 C1163.84,57.384 1168.484,64.092 1168.484,74.584 L1168.484,131 Z M1264.772,131 L1281.284,131 L1244.304,85.592 L1281.112,47.924 L1264.772,47.924 L1221.084,92.128 L1221.084,16.276 L1208.184,16.276 L1208.184,131 L1221.084,131 L1221.084,107.264 L1234.844,93.676 L1264.772,131 Z M1297.592,131 L1310.492,131 L1310.492,16.276 L1297.592,16.276 L1297.592,131 Z M1343.656,36.056 C1348.472,36.056 1352.428,32.272 1352.428,27.456 C1352.428,22.64 1348.472,18.684 1343.656,18.684 C1339.012,18.684 1335.056,22.64 1335.056,27.456 C1335.056,32.272 1339.012,36.056 1343.656,36.056 L1343.656,36.056 Z M1337.292,131 L1350.192,131 L1350.192,47.924 L1337.292,47.924 L1337.292,131 Z M1433.064,131 L1445.964,131 L1445.964,72.692 C1445.964,54.632 1436.848,45.86 1419.476,45.86 C1407.092,45.86 1395.74,53.084 1389.892,59.964 L1389.892,47.924 L1376.992,47.924 L1376.992,131 L1389.892,131 L1389.892,70.284 C1394.708,63.576 1404.34,57.384 1414.488,57.384 C1425.668,57.384 1433.064,62.028 1433.064,76.648 L1433.064,131 Z M1479.128,36.056 C1483.944,36.056 1487.9,32.272 1487.9,27.456 C1487.9,22.64 1483.944,18.684 1479.128,18.684 C1474.484,18.684 1470.528,22.64 1470.528,27.456 C1470.528,32.272 1474.484,36.056 1479.128,36.056 L1479.128,36.056 Z M1472.764,131 L1485.664,131 L1485.664,47.924 L1472.764,47.924 L1472.764,131 Z M1569.052,131 L1585.564,131 L1548.584,85.592 L1585.392,47.924 L1569.052,47.924 L1525.364,92.128 L1525.364,16.276 L1512.464,16.276 L1512.464,131 L1525.364,131 L1525.364,107.264 L1539.124,93.676 L1569.052,131 Z M1658.46,131 L1674.972,131 L1637.992,85.592 L1674.8,47.924 L1658.46,47.924 L1614.772,92.128 L1614.772,16.276 L1601.872,16.276 L1601.872,131 L1614.772,131 L1614.772,107.264 L1628.532,93.676 L1658.46,131 Z M1685.948,89.376 C1685.948,115.348 1703.664,133.064 1728.26,133.064 C1741.848,133.064 1753.028,128.592 1761.284,120.336 L1755.092,111.908 C1748.556,118.616 1738.924,122.4 1729.464,122.4 C1711.576,122.4 1700.568,109.328 1699.536,93.676 L1766.788,93.676 L1766.788,90.408 C1766.788,65.468 1751.996,45.86 1726.884,45.86 C1703.148,45.86 1685.948,65.296 1685.948,89.376 L1685.948,89.376 Z M1726.712,56.524 C1745.632,56.524 1753.888,71.832 1754.06,84.216 L1699.536,84.216 C1700.224,71.488 1708.996,56.524 1726.712,56.524 L1726.712,56.524 Z M1844.672,131 L1857.572,131 L1857.572,72.692 C1857.572,54.632 1848.456,45.86 1831.084,45.86 C1818.7,45.86 1807.348,53.084 1801.5,59.964 L1801.5,47.924 L1788.6,47.924 L1788.6,131 L1801.5,131 L1801.5,70.284 C1806.316,63.576 1815.948,57.384 1826.096,57.384 C1837.276,57.384 1844.672,62.028 1844.672,76.648 L1844.672,131 Z" id="Colosseumklinikken" fill="#444444"></path>
                <path d="M415.632,267 L424.679,267 L424.679,194.297 L411.708,194.297 L389.036,249.015 L366.473,194.297 L353.502,194.297 L353.502,267 L362.549,267 L362.549,207.159 L387.183,267 L390.889,267 L415.632,207.159 L415.632,267 Z M458.383001,267 L506.016001,267 L506.016001,258.934 L467.430001,258.934 L467.430001,233.864 L505.253001,233.864 L505.253001,225.798 L467.430001,225.798 L467.430001,202.363 L506.016001,202.363 L506.016001,194.297 L458.383001,194.297 L458.383001,267 Z M537.104002,267 L561.956002,267 C584.519002,267 599.234002,251.413 599.234002,230.703 C599.234002,210.102 584.519002,194.297 561.956002,194.297 L537.104002,194.297 L537.104002,267 Z M546.151002,258.934 L546.151002,202.363 L561.956002,202.363 C579.941002,202.363 589.860002,215.007 589.860002,230.703 C589.860002,246.29 579.614002,258.934 561.956002,258.934 L546.151002,258.934 Z M630.104002,267 L639.151002,267 L639.151002,194.297 L630.104002,194.297 L630.104002,267 Z M668.495003,256.754 C674.490003,263.512 683.755003,268.308 696.399003,268.308 C716.019003,268.308 723.213003,257.517 723.213003,246.944 C723.213003,231.684 709.697003,227.978 697.816003,224.817 C688.551003,222.31 680.158003,220.13 680.158003,212.827 C680.158003,205.96 686.371003,201.273 695.091003,201.273 C703.048003,201.273 710.678003,203.998 716.128003,209.993 L721.578003,203.344 C715.474003,196.913 706.863003,193.207 695.745003,193.207 C681.466003,193.207 670.784003,201.382 670.784003,213.372 C670.784003,227.651 683.755003,230.921 695.418003,233.973 C705.010003,236.589 713.839003,238.987 713.839003,247.707 C713.839003,253.266 709.697003,260.242 696.726003,260.242 C686.480003,260.242 678.632003,255.228 673.836003,249.887 L668.495003,256.754 Z M753.429004,267 L762.476004,267 L762.476004,194.297 L753.429004,194.297 L753.429004,267 Z M847.628005,267 L856.348005,267 L856.348005,194.297 L847.301005,194.297 L847.301005,251.086 L805.445005,194.297 L796.180005,194.297 L796.180005,267 L805.227005,267 L805.227005,209.012 L847.628005,267 Z M885.692005,256.754 C891.687005,263.512 900.952005,268.308 913.596005,268.308 C933.216005,268.308 940.410005,257.517 940.410005,246.944 C940.410005,231.684 926.894005,227.978 915.013005,224.817 C905.748005,222.31 897.355005,220.13 897.355005,212.827 C897.355005,205.96 903.568005,201.273 912.288005,201.273 C920.245005,201.273 927.875005,203.998 933.325005,209.993 L938.775005,203.344 C932.671005,196.913 924.060005,193.207 912.942005,193.207 C898.663005,193.207 887.981005,201.382 887.981005,213.372 C887.981005,227.651 900.952005,230.921 912.615005,233.973 C922.207005,236.589 931.036005,238.987 931.036005,247.707 C931.036005,253.266 926.894005,260.242 913.923005,260.242 C903.677005,260.242 895.829005,255.228 891.033005,249.887 L885.692005,256.754 Z M1014.55301,267 L1025.78001,267 L992.862006,228.85 L1023.16401,194.297 L1011.82801,194.297 L979.673006,231.902 L979.673006,194.297 L970.626006,194.297 L970.626006,267 L979.673006,267 L979.673006,242.584 L986.976006,234.3 L1014.55301,267 Z M1052.83501,267 L1100.46801,267 L1100.46801,258.934 L1061.88201,258.934 L1061.88201,233.864 L1099.70501,233.864 L1099.70501,225.798 L1061.88201,225.798 L1061.88201,202.363 L1100.46801,202.363 L1100.46801,194.297 L1052.83501,194.297 L1052.83501,267 Z M1172.01801,256.754 C1178.01301,263.512 1187.27801,268.308 1199.92201,268.308 C1219.54201,268.308 1226.73601,257.517 1226.73601,246.944 C1226.73601,231.684 1213.22001,227.978 1201.33901,224.817 C1192.07401,222.31 1183.68101,220.13 1183.68101,212.827 C1183.68101,205.96 1189.89401,201.273 1198.61401,201.273 C1206.57101,201.273 1214.20101,203.998 1219.65101,209.993 L1225.10101,203.344 C1218.99701,196.913 1210.38601,193.207 1199.26801,193.207 C1184.98901,193.207 1174.30701,201.382 1174.30701,213.372 C1174.30701,227.651 1187.27801,230.921 1198.94101,233.973 C1208.53301,236.589 1217.36201,238.987 1217.36201,247.707 C1217.36201,253.266 1213.22001,260.242 1200.24901,260.242 C1190.00301,260.242 1182.15501,255.228 1177.35901,249.887 L1172.01801,256.754 Z M1256.95201,267 L1304.58501,267 L1304.58501,258.934 L1265.99901,258.934 L1265.99901,233.864 L1303.82201,233.864 L1303.82201,225.798 L1265.99901,225.798 L1265.99901,202.363 L1304.58501,202.363 L1304.58501,194.297 L1256.95201,194.297 L1256.95201,267 Z M1387.12101,267 L1395.84101,267 L1395.84101,194.297 L1386.79401,194.297 L1386.79401,251.086 L1344.93801,194.297 L1335.67301,194.297 L1335.67301,267 L1344.72001,267 L1344.72001,209.012 L1387.12101,267 Z M1447.53001,267 L1456.57701,267 L1456.57701,202.363 L1479.68501,202.363 L1479.68501,194.297 L1424.53101,194.297 L1424.53101,202.363 L1447.53001,202.363 L1447.53001,267 Z M1508.37501,267 L1556.00801,267 L1556.00801,258.934 L1517.42201,258.934 L1517.42201,233.864 L1555.24501,233.864 L1555.24501,225.798 L1517.42201,225.798 L1517.42201,202.363 L1556.00801,202.363 L1556.00801,194.297 L1508.37501,194.297 L1508.37501,267 Z M1629.17001,267 L1639.85201,267 L1620.23201,237.352 C1630.15101,236.48 1639.08901,229.286 1639.08901,216.206 C1639.08901,202.799 1629.60601,194.297 1616.30801,194.297 L1587.09601,194.297 L1587.09601,267 L1596.14301,267 L1596.14301,238.115 L1610.64001,238.115 L1629.17001,267 Z M1629.71501,216.206 C1629.71501,224.381 1623.82901,230.158 1615.21801,230.158 L1596.14301,230.158 L1596.14301,202.363 L1615.21801,202.363 C1623.82901,202.363 1629.71501,208.031 1629.71501,216.206 L1629.71501,216.206 Z M1766.77401,267 L1777.12901,267 L1747.80801,194.297 L1736.58101,194.297 L1707.36901,267 L1717.72401,267 L1724.15501,250.868 L1760.34301,250.868 L1766.77401,267 Z M1742.24901,203.671 L1757.61801,242.802 L1726.77101,242.802 L1742.24901,203.671 Z M1797.42601,256.754 C1803.42101,263.512 1812.68601,268.308 1825.33001,268.308 C1844.95001,268.308 1852.14401,257.517 1852.14401,246.944 C1852.14401,231.684 1838.62801,227.978 1826.74701,224.817 C1817.48201,222.31 1809.08901,220.13 1809.08901,212.827 C1809.08901,205.96 1815.30201,201.273 1824.02201,201.273 C1831.97901,201.273 1839.60901,203.998 1845.05901,209.993 L1850.50901,203.344 C1844.40501,196.913 1835.79401,193.207 1824.67601,193.207 C1810.39701,193.207 1799.71501,201.382 1799.71501,213.372 C1799.71501,227.651 1812.68601,230.921 1824.34901,233.973 C1833.94101,236.589 1842.77001,238.987 1842.77001,247.707 C1842.77001,253.266 1838.62801,260.242 1825.65701,260.242 C1815.41101,260.242 1807.56301,255.228 1802.76701,249.887 L1797.42601,256.754 Z" id="MEDISINSKE-SENTER-AS" fill="#444444"></path>
                <g id="logo">
                    <rect id="right" fill="#4265AF" transform="translate(208.500000, 140.500000) rotate(-90.000000) translate(-208.500000, -140.500000) " x="158.5" y="69" width="100" height="143" rx="13"></rect>
                    <rect id="bottom" fill="#4265AF" transform="translate(140.000000, 211.500000) rotate(-360.000000) translate(-140.000000, -211.500000) " x="90" y="143" width="100" height="137" rx="13"></rect>
                    <rect id="top" fill="#9FC9EB" transform="translate(140.000000, 71.500000) rotate(-180.000000) translate(-140.000000, -71.500000) " x="90" y="2.84217094e-14" width="100" height="143" rx="13"></rect>
                    <rect id="left" fill="#9FC9EB" transform="translate(71.500000, 140.000000) rotate(-270.000000) translate(-71.500000, -140.000000) " x="21.5" y="68.5" width="100" height="143" rx="13"></rect>
                    <rect id="middle" fill="#5590CC" x="90" y="90" width="100" height="100"></rect>
                </g>
            </g>
        </g>
    </g>
</svg>