<?xml version="1.0" encoding="UTF-8" standalone="no"?>
<svg width="100px" height="100px" viewBox="0 0 250 250" version="1.1" xmlns="http://www.w3.org/2000/svg" xmlns:xlink="http://www.w3.org/1999/xlink" xmlns:sketch="http://www.bohemiancoding.com/sketch/ns">
    <title>Eyr Logo</title>
    <desc>Icon logo.</desc>
    <defs></defs>
    <g id="logo_frame" stroke="none" stroke-width="1" fill="none" fill-rule="evenodd" sketch:type="MSPage">
        <g id="logo_icon_positive" sketch:type="MSArtboardGroup" fill="currentColor">
            <g id="logo" sketch:type="MSLayerGroup" transform="translate(10.000000, 10.000000)">
                <g id="logo_group" sketch:type="MSShapeGroup">
                    <g id="logo_shape">
                        <path d="M106.25361,170.46075 L106.25361,137.529305 L64.4975124,96.3964325 L64.4975124,71 L82.8826599,71 L82.8826599,89.5409538 L115.60199,122.260284 L148.009708,89.5409538 L148.009708,71 L166.239049,71 L166.239049,96.3964325 L124.482951,137.373498 L124.482951,170.301678 C127.505292,172.859612 129.423725,176.678497 129.423725,180.944871 C129.423725,188.646411 123.172229,194.889743 115.460619,194.889743 C107.749008,194.889743 101.497512,188.646411 101.497512,180.944871 C101.497512,176.766054 103.338011,173.016547 106.25361,170.46075 Z M0,20.0086422 C0,8.95817426 8.94568228,0 20.0086422,0 L209.991358,0 C221.041826,0 230,8.94568228 230,20.0086422 L230,209.991358 C230,221.041826 221.054318,230 209.991358,230 L20.0086422,230 C8.95817426,230 0,221.054318 0,209.991358 L0,20.0086422 Z M157.498352,61.9677224 C164.678517,61.9677224 170.499191,56.1546497 170.499191,48.9838612 C170.499191,41.8130727 164.678517,36 157.498352,36 C150.318187,36 144.497512,41.8130727 144.497512,48.9838612 C144.497512,56.1546497 150.318187,61.9677224 157.498352,61.9677224 Z M72.4983519,61.9677224 C79.6785172,61.9677224 85.4991913,56.1546497 85.4991913,48.9838612 C85.4991913,41.8130727 79.6785172,36 72.4983519,36 C65.3181865,36 59.4975124,41.8130727 59.4975124,48.9838612 C59.4975124,56.1546497 65.3181865,61.9677224 72.4983519,61.9677224 Z"></path>
                    </g>
                </g>
            </g>
        </g>
    </g>
</svg>
