<?xml version="1.0" encoding="UTF-8" standalone="no"?>
<svg width="50px" viewBox="0 0 342 467" version="1.1" xmlns="http://www.w3.org/2000/svg" xmlns:xlink="http://www.w3.org/1999/xlink" xmlns:sketch="http://www.bohemiancoding.com/sketch/ns">
	<title>Eyr Medical logo</title>
	<desc>Virtual consultations</desc>
	<defs></defs>
	<g id="eyr-logo-path" stroke="none" stroke-width="1" fill="currentColor" fill-rule="evenodd" sketch:type="MSPage">
			<path d="M200.725234,398.621282 C208.028263,405.866316 212.551402,415.91311 212.551402,427.017123 C212.551402,449.099056 194.663713,467 172.598131,467 C150.532549,467 132.64486,449.099056 132.64486,427.017123 C132.64486,415.832337 137.234043,405.720206 144.630841,398.463621 L144.630841,313.625685 L16.1411215,186.959932 L16.1411215,108.753425 L72.7149533,108.753425 L72.7149533,165.848973 L173.397196,266.605822 L273.120561,165.848973 L273.120561,108.753425 L329.214953,108.753425 L329.214953,186.959932 L200.725234,313.14589 L200.725234,398.621282 Z M39.953271,79.9657534 C62.0188533,79.9657534 79.9065421,62.0648098 79.9065421,39.9828767 C79.9065421,17.9009437 62.0188533,0 39.953271,0 C17.8876887,0 0,17.9009437 0,39.9828767 C0,62.0648098 17.8876887,79.9657534 39.953271,79.9657534 Z M302.046729,79.9657534 C324.112311,79.9657534 342,62.0648098 342,39.9828767 C342,17.9009437 324.112311,0 302.046729,0 C279.981147,0 262.093458,17.9009437 262.093458,39.9828767 C262.093458,62.0648098 279.981147,79.9657534 302.046729,79.9657534 Z" id="eyr_logo-copy" fill="currentColor" sketch:type="MSShapeGroup"></path>
	</g>
</svg>
