<?xml version="1.0" encoding="UTF-8"?>
<svg width="280px" height="80px" viewBox="0 0 280 80" version="1.1" xmlns="http://www.w3.org/2000/svg" xmlns:xlink="http://www.w3.org/1999/xlink">
    <!-- Generator: Sketch 40.1 (33804) - http://www.bohemiancoding.com/sketch -->
    <title>Artboard</title>
    <desc>Created with Sketch.</desc>
    <defs></defs>
    <g id="Page-1" stroke="none" stroke-width="1" fill="none" fill-rule="evenodd">
        <g id="Artboard">
            <rect id="Rectangle" x="0" y="0" width="280" height="80"></rect>
            <g id="simula" transform="translate(28.000000, 0.000000)">
                <g id="Layer_1">
                    <g id="Group">
                        <rect id="Rectangle-path" fill="#000000" x="106.789708" y="1.24256589" width="6.03678668" height="36.0659496"></rect>
                        <path d="M25.105231,4.28284109 C25.105231,6.54658915 26.9468071,8.44993798 29.1867187,8.44993798 C31.4764606,8.44993798 33.2685122,6.54658915 33.2685122,4.28284109 C33.2685122,1.9162093 31.4764606,0.0128604651 29.1867187,0.0128604651 C26.9468071,0.0128604651 25.105231,1.9162093 25.105231,4.28284109" id="Shape" fill="#000000"></path>
                        <rect id="Rectangle-path" fill="#000000" x="26.1660326" y="12.0588295" width="6.0419837" height="25.249686"></rect>
                        <g transform="translate(0.000000, 11.329457)" id="Shape">
                            <path d="M80.0495584,14.961314 C80.0495584,20.5302016 80.6851223,22.2804496 82.2735734,24.0839767 C83.75625,25.7279729 85.9273777,26.5234845 88.4690217,26.5234845 C92.0696332,26.5234845 94.7702446,24.7732364 95.9881793,22.6518721 L95.9881793,25.8871977 L102.02466,25.8871977 L102.02466,0.640879845 L95.9881793,0.640879845 L95.9881793,14.1658023 C95.9881793,18.2496124 94.346841,21.1667946 90.5869565,21.1667946 C88.4690217,21.1667946 87.3039742,20.265031 86.7216033,18.9391783 C86.1392323,17.6133256 86.0860394,15.8630775 86.0860394,14.0595504 L86.0860394,0.640879845 L80.0495584,0.640879845 L80.0495584,14.961314 L80.0495584,14.961314 Z" fill="#000000"></path>
                            <path d="M57.1671196,2.44440698 C55.6844429,0.800104651 53.5133152,0.00459302326 50.918784,0.00459302326 C46.9473505,0.00459302326 44.2467391,1.75484109 43.0288043,3.87651163 L43.0288043,0.641186047 L36.9923234,0.641186047 L36.9923234,25.8871977 L43.0288043,25.8871977 L43.0288043,12.3625814 C43.0288043,8.27846512 44.7762228,5.36158915 48.4829144,5.36158915 C53.0367188,5.36158915 53.3546535,8.54394186 53.3546535,13.1051202 L53.3546535,25.8871977 L59.3911345,25.8871977 L59.3911345,12.3625814 C59.3911345,8.27846512 61.0856658,5.36158915 64.8452446,5.36158915 C69.3990489,5.36158915 69.7169837,8.54394186 69.7169837,13.1051202 L69.7169837,25.8871977 L75.7534647,25.8871977 L75.7534647,11.5670698 C75.7534647,5.99787597 75.1179008,4.24762791 73.5294497,2.44440698 C72.2057405,0.959329457 70.0875,0.00459302326 66.8574049,0.00459302326 C62.3036005,0.00459302326 59.7616508,2.0732907 58.226087,3.9294845 C57.9084579,3.39914341 57.5908288,2.92177519 57.1671196,2.44440698" fill="#000000"></path>
                            <path d="M21.8292799,4.03543023 C20.1876359,2.2322093 16.3222826,0.00459302326 11.2918818,0.00459302326 C6.47302989,0.00459302326 1.125,2.33815504 1.125,7.85406977 C1.125,12.4685271 4.56664402,14.3247209 8.96178668,15.2794574 L12.7213655,16.074969 C15.1572351,16.6056163 16.5870245,16.9237597 16.5870245,18.6740078 C16.5870245,20.4772287 14.839606,21.5379109 11.8213655,21.5379109 C7.95570652,21.5379109 5.51983696,19.6817171 4.09035326,17.7722442 L0.0128396739,21.3789922 C1.54840353,23.5533295 5.62591712,26.5234845 11.6623981,26.5234845 C17.4341372,26.5234845 22.6763927,23.7655271 22.6763927,17.9844419 C22.6763927,13.3702907 19.2347486,11.938186 15.4219769,11.0364225 L12.4037364,10.3468566 C8.85601223,9.60431783 7.10859375,9.23320155 7.10859375,7.42998062 C7.10859375,5.78567829 8.85601223,4.9371938 11.2386889,4.9371938 C14.1511549,4.9371938 16.5870245,6.10382171 18.3344429,7.8010969 L21.8292799,4.03543023 L21.8292799,4.03543023 Z" fill="#000000"></path>
                            <path d="M132.631692,16.9614225 C132.631692,20.4089457 130.354789,22.0532481 127.071501,22.0532481 C124.106148,22.0532481 122.729552,20.6741163 122.729552,18.6057248 C122.729552,16.5903062 124.000068,15.8477674 126.859952,15.2641473 L129.189742,14.7867791 C130.990048,14.4156628 131.73108,14.2034651 132.631692,13.8853217 L132.631692,16.9614225 L132.631692,16.9614225 Z M138.403431,20.143469 L138.403431,7.62656202 C138.403431,2.05736822 134.167561,0.201174419 128.395516,0.201174419 C122.359035,0.201174419 117.275442,2.69396124 117.381522,8.89944186 L123.047486,9.27055814 C122.994293,6.3007093 124.742018,4.86860465 128.13108,4.86860465 C131.255095,4.86860465 132.631997,5.92928682 132.631997,8.05065116 L132.631997,8.47504651 C132.631997,9.42978295 132.367255,9.53572868 131.04324,9.80120543 L125.483356,10.7556357 C122.200374,11.3392558 119.552649,12.3469651 118.017086,14.2031589 C117.11678,15.3171202 116.58699,16.7489186 116.58699,18.6583915 C116.58699,24.1743062 120.611311,26.6141202 125.483356,26.6141202 C129.820414,26.6141202 131.534205,24.4682597 132.640251,23.374814 L132.640251,25.8434109 L138.400679,25.8434109 L138.400679,20.1771512 C138.400985,20.1661279 138.403431,20.154186 138.403431,20.143469 L138.403431,20.143469 Z" fill="#000000"></path>
                            <path d="M35.3173573,52.5533721 C35.3173573,47.6967093 34.7903193,45.7961163 33.6307745,44.1591628 C31.9441916,41.8895969 29.5725204,41.045093 26.7263927,41.045093 C22.9316576,41.045093 20.0855299,42.6814341 18.9259851,44.8983333 L18.9259851,41.6783178 L12.9176291,41.6783178 L12.9176291,66.8064419 L18.9259851,66.8064419 L18.9259851,53.3449031 C18.9259851,49.2800775 20.7180367,46.3763682 24.4598845,46.3763682 C27.0424932,46.3763682 28.3600883,47.485124 28.8874321,49.2797713 C29.2561141,50.5471395 29.3090014,52.1831744 29.3090014,54.0837674 L29.3090014,66.8061357 L35.3173573,66.8061357 L35.3173573,52.5533721 L35.3173573,52.5533721 Z" fill="#FFDD00"></path>
                            <path d="M62.4576766,52.5533721 C62.4576766,47.6967093 61.9306386,45.7961163 60.7710938,44.1591628 C59.0845109,41.8895969 56.7128397,41.045093 53.866712,41.045093 C50.0719769,41.045093 47.2258492,42.6814341 46.0663043,44.8983333 L46.0663043,41.6783178 L40.0579484,41.6783178 L40.0579484,66.8064419 L46.0663043,66.8064419 L46.0663043,53.3449031 C46.0663043,49.2800775 47.858356,46.3763682 51.6002038,46.3763682 C54.1828125,46.3763682 55.5004076,47.485124 56.0277514,49.2797713 C56.3964334,50.5471395 56.4493207,52.1831744 56.4493207,54.0837674 L56.4493207,66.8061357 L62.4576766,66.8061357 L62.4576766,52.5533721 L62.4576766,52.5533721 Z" fill="#FFDD00"></path>
                            <path d="M72.8856318,54.2423798 C72.8856318,49.2277171 75.520822,46.2183682 79.473913,46.2183682 C83.4266984,46.2183682 86.0618886,49.174438 86.0618886,54.2423798 C86.0618886,59.2049884 83.3212296,62.2670039 79.473913,62.2670039 C75.6259851,62.2670039 72.8856318,59.257655 72.8856318,54.2423798 M66.9295516,54.3483256 C66.9295516,62.3723372 71.7783628,67.4408915 79.4736073,67.4408915 C87.1685462,67.4408915 92.0173573,62.3723372 92.0173573,54.3483256 C92.0173573,46.2710349 87.115659,41.0980659 79.4736073,41.0980659 C71.83125,41.0977597 66.9295516,46.2710349 66.9295516,54.3483256" fill="#FFDD00"></path>
                            <path d="M99.3570652,41.678624 L93.1377717,41.678624 L101.307167,66.8067481 L107.579042,66.8067481 L115.854212,41.678624 L109.6875,41.678624 L105.945346,54.5592984 C105.154789,57.3043953 104.627751,59.7328798 104.627751,59.7328798 L104.574864,59.7328798 C104.574864,59.7328798 103.995245,57.3040891 103.204687,54.7176047 L99.3570652,41.678624" fill="#FFDD00"></path>
                            <path d="M132.419226,57.8540271 C132.419226,61.3018566 130.142323,62.9458527 126.859035,62.9458527 C123.893682,62.9458527 122.517086,61.5667209 122.517086,59.4980233 C122.517086,57.4826047 123.787908,56.7403721 126.647792,56.1567519 L128.977582,55.6793837 C130.777887,55.3079612 131.51892,55.0957636 132.419531,54.7776202 L132.419531,57.8540271 L132.419226,57.8540271 Z M138.190965,61.0360736 L138.190965,48.5194729 C138.190965,42.9499729 133.954789,41.0940853 128.18305,41.0940853 C122.146264,41.0940853 117.062976,43.5868721 117.16875,49.7920465 L122.834715,50.163469 C122.781827,47.1936202 124.529246,45.7612093 127.918308,45.7612093 C131.042629,45.7612093 132.419531,46.8221977 132.419531,48.943562 L132.419531,49.3676512 C132.419531,50.3226938 132.154789,50.4286395 130.830774,50.6941163 L125.27089,51.6485465 C121.987908,52.2321667 119.340183,53.239876 117.804314,55.0957636 C116.904314,56.210031 116.374524,57.6415233 116.374524,59.5513023 C116.374524,65.0672171 120.398845,67.507031 125.27089,67.507031 C129.607948,67.507031 131.321739,65.3611705 132.42748,64.2674186 L132.42748,66.7360155 L138.188213,66.7360155 L138.188213,61.0694496 C138.188519,61.0590388 138.190965,61.0470969 138.190965,61.0360736 L138.190965,61.0360736 Z" fill="#FFDD00"></path>
                            <path d="M157.480129,62.2670039 C156.847622,62.3723372 155.899015,62.4779767 154.844939,62.4779767 C153.790863,62.4779767 152.789368,62.3193643 152.315217,61.7914729 C151.840761,61.3165543 151.630129,60.6300504 151.630129,59.2049884 L151.630129,46.3766744 L157.480435,46.3766744 L157.480435,41.6783178 L151.630129,41.6783178 L151.630129,31.5951008 L145.621773,32.9145233 L145.621773,41.6783178 L140.245618,41.6783178 L140.245618,46.3766744 L145.621773,46.3766744 L145.621773,60.2077984 C145.621773,62.6365891 145.674355,64.0616512 146.675849,65.2757403 C148.04572,66.9653605 150.576053,67.4399729 153.000306,67.4399729 C154.792357,67.4399729 156.32089,67.2819729 157.480435,67.0177209 L157.480435,62.2670039 L157.480129,62.2670039 Z" fill="#FFDD00"></path>
                            <path d="M178.719701,54.2423798 C178.719701,49.2277171 181.354586,46.2183682 185.307982,46.2183682 C189.260768,46.2183682 191.895958,49.174438 191.895958,54.2423798 C191.895958,59.2049884 189.155299,62.2670039 185.307982,62.2670039 C181.46036,62.2670039 178.719701,59.257655 178.719701,54.2423798 M172.763621,54.3483256 C172.763621,62.3723372 177.612432,67.4408915 185.307677,67.4408915 C193.002615,67.4408915 197.851427,62.3723372 197.851427,54.3483256 C197.851427,46.2710349 192.949728,41.0980659 185.307677,41.0980659 C177.665625,41.0977597 172.763621,46.2710349 172.763621,54.3483256" fill="#FFDD00"></path>
                            <path d="M224.723336,52.5533721 C224.723336,47.6967093 224.196298,45.7961163 223.036753,44.1591628 C221.349864,41.8895969 218.978499,41.045093 216.132371,41.045093 C212.337636,41.045093 209.491202,42.6814341 208.331658,44.8983333 L208.331658,41.6783178 L202.323607,41.6783178 L202.323607,66.8064419 L208.331658,66.8064419 L208.331658,53.3449031 C208.331658,49.2800775 210.123709,46.3763682 213.865863,46.3763682 C216.448166,46.3763682 217.766372,47.485124 218.293105,49.2797713 C218.661787,50.5471395 218.714674,52.1831744 218.714674,54.0837674 L218.714674,66.8061357 L224.72303,66.8061357 L224.72303,52.5533721 L224.723336,52.5533721 Z" fill="#FFDD00"></path>
                            <path d="M161.20608,33.7813798 C161.20608,36.0451279 163.047351,37.9484767 165.287568,37.9484767 C167.57731,37.9484767 169.369667,36.0448217 169.369667,33.7813798 C169.369667,31.4147481 167.577615,29.5113992 165.287568,29.5113992 C163.047351,29.511093 161.20608,31.4147481 161.20608,33.7813798" fill="#FFDD00"></path>
                        </g>
                        <rect id="Rectangle-path" fill="#FFDD00" x="162.266576" y="52.9799109" width="6.0419837" height="25.249686"></rect>
                        <path d="M1.12194293,45.1876938 C1.12194293,47.4514419 2.96351902,49.3544845 5.20343071,49.3544845 C7.49317255,49.3544845 9.28522418,47.4511357 9.28522418,45.1876938 C9.28522418,42.821062 7.49317255,40.9177132 5.20343071,40.9177132 C2.96351902,40.917407 1.12194293,42.8207558 1.12194293,45.1876938" id="Shape" fill="#FFDD00"></path>
                        <rect id="Rectangle-path" fill="#FFDD00" x="2.18274457" y="52.963376" width="6.0419837" height="25.249686"></rect>
                    </g>
                </g>
            </g>
        </g>
    </g>
</svg>