<?xml version="1.0" encoding="UTF-8"?>
<svg width="280px" height="70px" viewBox="0 0 280 70" version="1.1" xmlns="http://www.w3.org/2000/svg" xmlns:xlink="http://www.w3.org/1999/xlink">
    <!-- Generator: Sketch 40.1 (33804) - http://www.bohemiancoding.com/sketch -->
    <title>storebrand</title>
    <desc>Created with Sketch.</desc>
    <defs></defs>
    <g id="Page-1" stroke="none" stroke-width="1" fill="none" fill-rule="evenodd">
        <g id="storebrand">
            <g id="SBlogo_pos" transform="translate(20.000000, 20.000000)">
                <path d="M51.945865,16.8529412 L51.945865,16.6967647 C51.945865,13.6107353 50.7103047,9.79102941 48.4851624,7.54411765 C46.0886204,5.11676471 42.7020602,3.72352941 39.1964361,3.72352941 C36.0340474,3.72352941 32.9990091,4.83926471 30.65175,6.86073529 C29.2399927,6.58147059 27.7161496,6.43014706 26.1316843,6.43014706 C24.5925766,6.43014706 23.0962099,6.59823529 21.7005894,6.88632353 C21.6953558,6.88191176 21.6888139,6.87441176 21.6822719,6.87 C19.3345766,4.84102941 16.2947409,3.72352941 13.1288631,3.72352941 C6.10496715,3.72352941 0.372020073,10.0323529 0.372020073,16.6967647 C0.372020073,16.7885294 0.372020073,16.8780882 0.37420073,16.9667647 C0.365041971,17.1547059 0.360680657,17.3470588 0.360680657,17.535 C0.360680657,20.6302941 1.58577372,23.5751471 3.8170219,25.8295588 C6.21879745,28.2639706 9.61582482,29.6554412 13.1288631,29.6554412 C16.9899343,29.6554412 20.5544361,28.0544118 22.9924106,25.2330882 C24.0020547,25.3566176 25.0522591,25.4254412 26.1316843,25.4254412 C27.2320438,25.4254412 28.3001296,25.3539706 29.3276551,25.2229412 C31.7630128,28.0482353 35.3301314,29.6554412 39.1964361,29.6554412 C42.7107828,29.6554412 46.1060657,28.2639706 48.5100219,25.8295588 C50.7390894,23.5751471 51.9663631,20.6302941 51.9663631,17.535 C51.9663631,17.3082353 51.959385,17.0814706 51.945865,16.8529412 L51.945865,16.8529412 Z M8.69209854,19.6407353 C7.89572263,18.8307353 7.37541788,17.8416176 7.1782865,16.7766176 C7.34358029,15.6436765 7.87522445,14.5852941 8.71477737,13.7347059 C9.69083942,12.7482353 11.0166788,12.1222059 12.4293084,11.9664706 L12.4293084,17.6219118 C12.4293084,18.9679412 12.9770894,20.2641176 14.0133376,21.3944118 C13.7215657,21.4323529 13.4249964,21.4548529 13.1288631,21.4548529 C11.4493212,21.4548529 9.83083759,20.7957353 8.69209854,19.6407353 L8.69209854,19.6407353 Z M39.1964361,21.4548529 C38.8697737,21.4548529 38.5461642,21.4270588 38.2343303,21.3816176 C39.282354,20.2407353 39.836677,18.9317647 39.836677,17.5760294 L39.836677,11.9572059 C41.2719854,12.1058824 42.6213759,12.7336765 43.6118303,13.7347059 C44.4518193,14.5852941 44.9808467,15.6436765 45.1487573,16.7766176 C44.6559288,19.4307353 42.1747774,21.4548529 39.1964361,21.4548529 L39.1964361,21.4548529 Z" id="Fill-1" fill="#FFFFFF"></path>
                <path d="M13.1288631,24.0847059 C9.29657664,24.0847059 6.19132117,21.1522059 6.19132117,17.535 C6.19132117,13.9217647 9.29657664,10.9866176 13.1288631,10.9866176 C15.7177391,10.9866176 17.9721022,12.3264706 19.1649215,14.3113235 C20.2064033,15.4742647 22.3656898,16.3045588 24.9166223,16.4514706 C24.3256642,10.7986765 19.2695931,6.35779412 13.1288631,6.35779412 C6.58994526,6.35779412 1.29094891,11.3616176 1.29094891,17.535 C1.29094891,23.7097059 6.58994526,28.7179412 13.1288631,28.7179412 C16.593927,28.7179412 19.710958,27.3123529 21.8741697,25.0720588 C19.8173741,24.7155882 17.974719,24.1036765 16.4713741,23.2720588 C15.4804836,23.79 14.3421807,24.0847059 13.1288631,24.0847059" id="Fill-2" fill="#D82331"></path>
                <path d="M39.1964361,6.35779412 C33.0578869,6.35779412 28.0039964,10.7986765 27.4130383,16.4514706 C29.961354,16.3045588 32.1232573,15.4742647 33.1616861,14.3113235 C34.3527609,12.3264706 36.6088686,10.9866176 39.1964361,10.9866176 C43.0282865,10.9866176 46.1331058,13.9217647 46.1331058,17.535 C46.1331058,21.1522059 43.0282865,24.0847059 39.1964361,24.0847059 C37.9626204,24.0847059 36.8064361,23.7811765 35.8007172,23.2455882 C34.3074033,24.0785294 32.4765237,24.6961765 30.439354,25.0530882 C32.6051825,27.3048529 35.7283193,28.7179412 39.1964361,28.7179412 C45.7349179,28.7179412 51.0356588,23.7097059 51.0356588,17.535 C51.0356588,11.3616176 45.7349179,6.35779412 39.1964361,6.35779412" id="Fill-3" fill="#D82331"></path>
                <path d="M38.9160036,17.5760294 L38.9160036,13.8714706 C38.9112062,13.8666176 38.9068449,13.8666176 38.9068449,13.8648529 C38.8859106,13.8533824 38.8654124,13.8432353 38.8449142,13.8432353 C38.8270328,13.8432353 38.8117682,13.8489706 38.7930146,13.8582353 C37.9355803,17.0267647 32.5960237,19.4695588 26.1316843,19.4695588 C19.667781,19.4695588 14.3260438,17.0267647 13.4707901,13.8551471 C13.4568339,13.8489706 13.4428777,13.8432353 13.4249964,13.8432353 C13.4027536,13.8432353 13.3800748,13.8533824 13.3617573,13.8692647 C13.357396,13.8714706 13.3525985,13.8714706 13.3504179,13.8763235 L13.3504179,17.5760294 C13.3504179,18.8580882 14.0818102,20.0563235 15.3422299,21.0626471 C17.2455073,22.5851471 20.3599215,23.6779412 23.992896,23.9916176 C24.6876533,24.0511765 25.4029088,24.0811765 26.1316843,24.0811765 C26.8835748,24.0811765 27.6167117,24.0467647 28.3297865,23.9872059 C31.9509854,23.6660294 35.0496989,22.5705882 36.9442536,21.0463235 C38.1911533,20.0417647 38.9160036,18.8488235 38.9160036,17.5760294" id="Fill-4" fill="#D82331"></path>
                <path d="M26.1678832,14.8954412 C26.2333029,14.8954412 26.2952336,14.8808824 26.3510584,14.8535294 C26.7789033,12.8730882 27.6572719,10.8860294 29.0358832,9.28323529 C28.1396332,9.10764706 27.159646,9.00617647 26.1316843,9.00617647 C25.131635,9.00617647 24.1738905,9.10014706 23.2981387,9.27397059 C24.6811113,10.8723529 25.5616606,12.8682353 25.9890693,14.8557353 C26.0435858,14.8808824 26.1028996,14.8954412 26.1678832,14.8954412" id="Fill-5" fill="#D82331"></path>
                <path d="M65.5043175,27.1905882 C63.3411058,27.1905882 61.2830018,26.9082353 59.2942427,26.52 L59.2942427,23.6258824 C61.4225639,24.0847059 63.2368704,24.4729412 65.0507409,24.4729412 C67.6326387,24.4729412 70.2149726,23.8376471 70.2149726,21.7548529 C70.2149726,19.2494118 66.481688,19.0376471 64.6669453,18.5788235 C62.1203741,17.9082353 59.189135,16.92 59.189135,13.32 C59.189135,9.08470588 63.0619818,7.88470588 66.7259215,7.88470588 C69.3427099,7.88470588 71.1914708,8.20235294 72.6224179,8.41411765 L72.6224179,11.2023529 C70.9123467,10.8847059 69.0984763,10.6023529 67.3539507,10.6023529 C65.5745347,10.6023529 62.7130766,10.8847059 62.7130766,13.0729412 C62.7130766,17.0964706 73.8435858,14.2023529 73.8435858,21.2964706 C73.8435858,24.9317647 70.9123467,27.1905882 65.5043175,27.1905882" id="Fill-6" fill="#000000"></path>
                <path d="M83.2635876,10.8847059 L83.2635876,21.8611765 C83.2635876,23.9435294 83.8920529,24.0847059 85.6365785,24.0847059 L88.3924927,24.0847059 L88.3924927,26.8023529 L85.3221277,26.8023529 C81.6237336,26.8023529 79.7745365,26.5552941 79.7745365,22.2141176 L79.7745365,10.8847059 L75.9365803,10.8847059 L75.9365803,8.27294118 L79.7745365,8.27294118 L79.7745365,2.80235294 C80.3676752,2.59058824 81.8679672,2.06117647 83.2635876,1.60235294 L83.2635876,8.27294118 L88.5320547,8.27294118 L88.5320547,10.8847059 L83.2635876,10.8847059" id="Fill-7" fill="#000000"></path>
                <path d="M105.907093,17.4141176 C105.907093,21.7905882 104.023005,24.6141176 100.394392,24.6141176 C96.7657792,24.6141176 94.8816916,21.7905882 94.8816916,17.4141176 C94.8816916,13.0729412 96.8006697,10.4611765 100.394392,10.4611765 C103.988115,10.4611765 105.907093,13.0729412 105.907093,17.4141176 L105.907093,17.4141176 Z M109.640378,17.4141176 C109.640378,11.4847059 106.221108,7.81411765 100.394392,7.81411765 C94.5327865,7.81411765 91.1484069,11.4847059 91.1484069,17.4141176 C91.1484069,23.2023529 94.497896,27.2611765 100.394392,27.2611765 C105.802422,27.2611765 109.640378,23.1670588 109.640378,17.4141176 L109.640378,17.4141176 Z" id="Fill-8" fill="#000000"></path>
                <path d="M117.385635,12.7905882 L117.385635,26.8023529 L113.896584,26.8023529 L113.896584,8.27294118 L117.07162,8.27294118 L117.07162,10.0729412 C119.304613,8.59058824 121.188701,8.13176471 124.433954,8.13176471 L124.433954,11.3435294 C120.944903,11.3435294 119.234832,11.4847059 117.385635,12.7905882" id="Fill-9" fill="#000000"></path>
                <path d="M140.098922,16.1788235 L130.329578,16.1788235 C130.43425,12.5435294 132.074104,10.3905882 135.179359,10.3905882 C138.843299,10.3905882 140.029141,12.8258824 140.098922,16.1788235 L140.098922,16.1788235 Z M144.041985,18.6847059 L144.041985,17.7670588 C144.041985,11.8023529 141.494978,7.88470588 135.179359,7.88470588 C130.469141,7.88470588 126.491622,10.6376471 126.491622,17.1670588 C126.491622,23.4847059 130.050454,27.2258824 136.505199,27.2258824 C138.529285,27.2258824 140.412936,27.12 142.611038,26.5552941 L142.611038,24.0494118 C140.831622,24.3670588 139.296876,24.5788235 137.622131,24.5788235 C134.970453,24.5788235 130.887827,24.4019118 130.294688,18.6847059 L144.041985,18.6847059 L144.041985,18.6847059 Z" id="Fill-10" fill="#000000"></path>
                <path d="M160.823885,17.52 C160.823885,21.7905882 158.660673,24.5082353 154.404031,24.5082353 C153.776002,24.5082353 152.799504,24.5082353 151.298776,24.2964706 L151.298776,10.7082353 C152.589724,10.5317647 153.706221,10.4611765 154.473812,10.4611765 C158.835126,10.4611765 160.823885,12.9670588 160.823885,17.52 L160.823885,17.52 Z M164.522279,17.5552941 C164.522279,11.3435294 160.998338,7.77882353 155.416292,7.77882353 C154.892498,7.77882353 153.496878,7.77882353 151.333666,8.06117647 L151.333666,0.331764706 L147.844615,0.331764706 L147.844615,26.5905882 C150.25206,27.0141176 152.93863,27.1905882 154.404031,27.1905882 C160.195856,27.1905882 164.522279,23.6964706 164.522279,17.5552941 L164.522279,17.5552941 Z" id="Fill-11" fill="#000000"></path>
                <path d="M172.267536,12.7905882 L172.267536,26.8023529 L168.778485,26.8023529 L168.778485,8.27294118 L171.953958,8.27294118 L171.953958,10.0729412 C174.186515,8.59058824 176.070602,8.13176471 179.31542,8.13176471 L179.31542,11.3435294 C175.826369,11.3435294 174.116734,11.4847059 172.267536,12.7905882" id="Fill-12" fill="#000000"></path>
                <path d="M193.515422,24.4729412 C191.736005,24.5788235 191.038195,24.6494118 190.096151,24.6494118 C187.304911,24.6494118 184.51367,24.3317647 184.51367,21.2258824 C184.51367,18.5082353 186.747099,17.9435294 190.410166,17.9435294 C190.933524,17.9435294 192.015566,18.0141176 193.515422,18.0494118 L193.515422,24.4729412 L193.515422,24.4729412 Z M196.969582,26.7670588 L196.969582,14.0258824 C196.969582,8.59058824 193.689874,7.88470588 188.596296,7.88470588 C186.502429,7.88470588 184.374108,8.09647059 182.141115,8.55529412 L182.141115,11.3082353 C184.094984,10.9552941 186.258195,10.5670588 188.212064,10.5670588 C193.306515,10.5670588 193.480531,11.52 193.480531,15.4376471 C192.259363,15.4376471 191.317319,15.3317647 190.514838,15.3317647 C186.676881,15.3317647 180.885057,15.3670588 180.885057,21.12 C180.885057,26.1317647 184.200091,27.1905882 188.944765,27.1905882 C191.456881,27.1905882 193.864327,27.12 196.969582,26.7670588 L196.969582,26.7670588 Z" id="Fill-13" fill="#000000"></path>
                <path d="M214.693962,26.8023529 L214.693962,14.9788235 C214.693962,13.0023529 214.659071,10.8494118 211.518489,10.8494118 C209.739073,10.8494118 207.122285,11.8729412 205.552648,12.5435294 L205.552648,26.8023529 L202.098487,26.8023529 L202.098487,8.23764706 L205.307978,8.23764706 L205.307978,9.93176471 C208.936591,8.30823529 210.19265,7.88470588 212.704766,7.88470588 C215.321555,7.88470588 218.217903,9.43764706 218.217903,13.5317647 L218.217903,26.8023529 L214.693962,26.8023529" id="Fill-14" fill="#000000"></path>
                <path d="M235.279363,24.3317647 C233.778635,24.4729412 232.906372,24.5082353 232.243889,24.5082353 C228.056591,24.5082353 225.719363,21.6847059 225.719363,17.5552941 C225.719363,12.72 227.95192,10.4611765 232.069,10.4611765 C232.836591,10.4611765 233.813526,10.5317647 235.279363,10.7788235 L235.279363,24.3317647 L235.279363,24.3317647 Z M238.768414,0.331764706 L235.279363,0.331764706 L235.279363,7.99058824 C233.290168,7.70823529 232.034109,7.74352941 231.301845,7.74352941 C225.300241,7.74352941 221.985642,11.7317647 221.985642,17.6611765 C221.985642,23.9082353 226.312066,27.1905882 232.103891,27.1905882 C234.197321,27.1905882 236.919217,26.8729412 238.768414,26.5552941 C238.803305,22.3905882 238.768414,7.21411765 238.768414,0.331764706 L238.768414,0.331764706 Z" id="Fill-15" fill="#000000"></path>
            </g>
        </g>
    </g>
</svg>